<svg xmlns="http://www.w3.org/2000/svg" width="29.556" height="33" viewBox="0 0 29.556 33">
  <g id="date-range-svgrepo-com" transform="translate(-3 -2)">
    <path id="Path_37" data-name="Path 37" d="M31.556,15.056V9.889a3.444,3.444,0,0,0-3.444-3.444H7.444A3.444,3.444,0,0,0,4,9.889v5.167m27.556,0v15.5A3.444,3.444,0,0,1,28.111,34H7.444A3.444,3.444,0,0,1,4,30.556v-15.5m27.556,0H4M10.889,3V9.889M24.667,3V9.889" transform="translate(0 0)" fill="none" stroke="#000" stroke-linecap="round" stroke-width="2"/>
    <rect id="Rectangle_85" data-name="Rectangle 85" width="6" height="5" rx="0.5" transform="translate(7 19)"/>
    <rect id="Rectangle_86" data-name="Rectangle 86" width="5.167" height="5.167" rx="0.5" transform="translate(15.194 18.5)"/>
    <rect id="Rectangle_87" data-name="Rectangle 87" width="5" height="5" rx="0.5" transform="translate(23 19)"/>
  </g>
</svg>
