<svg xmlns="http://www.w3.org/2000/svg" width="31.774" height="29.156" viewBox="0 0 31.774 29.156">
  <g id="gallery-wide-svgrepo-com" transform="translate(-0.976 -2.25)">
    <path id="Path_26" data-name="Path 26" d="M32,18.047c0,5.944,0,8.916-1.757,10.763S25.657,30.656,20,30.656H14c-5.657,0-8.485,0-10.243-1.847S2,23.991,2,18.047,2,9.131,3.757,7.284,8.343,5.438,14,5.438h6c5.657,0,8.485,0,10.243,1.847,1,1.046,1.427,2.453,1.614,4.557" fill="none" stroke="#000" stroke-linecap="round" stroke-width="1.5"/>
    <path id="Path_27" data-name="Path 27" d="M3.988,6A2.833,2.833,0,0,1,5.353,3.937C6.887,3,9.356,3,14.294,3h5.237c4.938,0,7.407,0,8.941.937A2.833,2.833,0,0,1,29.837,6" transform="translate(0)" fill="none" stroke="#000" stroke-width="1.5"/>
    <circle id="Ellipse_19" data-name="Ellipse 19" cx="1.5" cy="1.5" r="1.5" transform="translate(24.235 11.685)" fill="none" stroke="#000" stroke-width="1.5"/>
    <path id="Path_28" data-name="Path 28" d="M2,13.938,4.673,12.4a4.941,4.941,0,0,1,4.794.1l6.547,4.29a4.32,4.32,0,0,0,3.914.222l.455-.21a6.535,6.535,0,0,1,5.7.225l4.92,2.9" transform="translate(0 9.219)" fill="none" stroke="#000" stroke-linecap="round" stroke-width="1.5"/>
  </g>
</svg>
