<svg id="image-svgrepo-com" xmlns="http://www.w3.org/2000/svg" width="30" height="30" viewBox="0 0 30 30">
  <rect id="Rectangle_84" data-name="Rectangle 84" width="30" height="30" fill="none"/>
  <path id="Path_25" data-name="Path 25" d="M27,20.333v5.333A1.333,1.333,0,0,1,25.667,27H4.333A1.333,1.333,0,0,1,3,25.667V23m24-2.667v-16A1.333,1.333,0,0,0,25.667,3H4.333A1.333,1.333,0,0,0,3,4.333V23m24-2.667-7.356-4.9a1.333,1.333,0,0,0-1.336-.083L3,23" fill="none" stroke="#000" stroke-linejoin="round" stroke-width="1.5"/>
  <circle id="Ellipse_18" data-name="Ellipse 18" cx="2" cy="2" r="2" transform="translate(7.8 9.1)" fill="none" stroke="#000" stroke-linejoin="round" stroke-width="1.5"/>
</svg>
