<svg xmlns="http://www.w3.org/2000/svg" width="32.5" height="32.5" viewBox="0 0 32.5 32.5">
  <g id="instagram-svgrepo-com" transform="translate(-4.25 -3.75)">
    <path id="Path_10" data-name="Path 10" d="M26.929,5H14.071A8.571,8.571,0,0,0,5.5,13.571V26.429A8.571,8.571,0,0,0,14.071,35H26.929A8.572,8.572,0,0,0,35.5,26.429V13.571A8.571,8.571,0,0,0,26.929,5Z" transform="translate(0)" fill="none" stroke="#000" stroke-linecap="round" stroke-linejoin="round" stroke-width="2.5" fill-rule="evenodd"/>
    <path id="Path_11" data-name="Path 11" d="M14.964,19.929a5.464,5.464,0,1,1,3.864-1.6A5.464,5.464,0,0,1,14.964,19.929Z" transform="translate(5.536 5.536)" fill="none" stroke="#000" stroke-linecap="round" stroke-linejoin="round" stroke-width="2.5" fill-rule="evenodd"/>
    <rect id="Rectangle_38" data-name="Rectangle 38" width="3" height="3" rx="1" transform="translate(27.7 12.8) rotate(-90)"/>
    <rect id="Rectangle_39" data-name="Rectangle 39" width="1.821" height="1.821" rx="0.5" transform="translate(28.26 12.24) rotate(-90)" fill="none" stroke="#000" stroke-linecap="round" stroke-width="2.5"/>
  </g>
</svg>
