<svg xmlns="http://www.w3.org/2000/svg" width="24.008" height="32.063" viewBox="0 0 24.008 32.063">
  <g id="layer1" transform="translate(-0.322 -287.797)">
    <path id="path929" d="M12.322,288.8a11.015,11.015,0,0,0-11,11c0,10.67,10.38,18.781,10.38,18.781a1,1,0,0,0,1.248,0s10.38-8.112,10.38-18.781A11.021,11.021,0,0,0,12.322,288.8Zm0,2a8.99,8.99,0,0,1,9.007,9c0,8.729-7.9,15.625-9,16.559-1.09-.929-9.007-7.827-9.007-16.559A8.983,8.983,0,0,1,12.322,290.8Z" transform="translate(0)" stroke="#000" stroke-width="2"/>
    <path id="circle931" d="M4.232,290.385a1.323,1.323,0,1,0,1.324,1.322A1.326,1.326,0,0,0,4.232,290.385Zm0,.529a.794.794,0,1,1-.793.793A.79.79,0,0,1,4.232,290.914Z" transform="translate(8.093 6.622)" stroke="#000" stroke-width="2"/>
  </g>
</svg>
