<svg xmlns="http://www.w3.org/2000/svg" width="30" height="30" viewBox="0 0 30 30">
  <path id="linkedin-svgrepo-com" d="M8,2A6,6,0,0,0,2,8V26a6,6,0,0,0,6,6H26a6,6,0,0,0,6-6V8a6,6,0,0,0-6-6ZM5,8A3,3,0,0,1,8,5H26a3,3,0,0,1,3,3V26a3,3,0,0,1-3,3H8a3,3,0,0,1-3-3Zm7.5,7.5a1.5,1.5,0,0,0-3,0v9a1.5,1.5,0,0,0,3,0Zm.75-5.25A2.25,2.25,0,1,1,11,8,2.25,2.25,0,0,1,13.25,10.25ZM17,14a1.5,1.5,0,0,1,1.23.642A5.265,5.265,0,0,1,20.75,14,5.39,5.39,0,0,1,26,19.357v5.127h0a1.5,1.5,0,0,1-3,0h0V19.357A2.393,2.393,0,0,0,20.75,17a2.64,2.64,0,0,0-2.25,1.445v6.043h0a1.5,1.5,0,0,1-3,0h0V15.533h0v0h0A1.5,1.5,0,0,1,17,14Z" transform="translate(-2 -2)" fill-rule="evenodd"/>
</svg>
