<svg xmlns="http://www.w3.org/2000/svg" width="31.543" height="32.103" viewBox="0 0 31.543 32.103">
  <g id="notes-svgrepo-com" transform="translate(-1.021 -1.053)">
    <path id="Path_33" data-name="Path 33" d="M11.777,10l7.3,1.955" transform="translate(4.992 4.085)" fill="none" stroke="#1c274c" stroke-linecap="round" stroke-width="2"/>
    <path id="Path_34" data-name="Path 34" d="M11,12.9l4.377,1.173" transform="translate(4.596 5.565)" fill="none" stroke="#1c274c" stroke-linecap="round" stroke-width="2"/>
    <path id="Path_35" data-name="Path 35" d="M27.109,18.084c-.913,3.407-1.369,5.11-2.4,6.215a6.042,6.042,0,0,1-3.038,1.754,4.2,4.2,0,0,1-.444.079c-1.382.171-3.069-.281-6.139-1.1-3.407-.913-5.11-1.369-6.215-2.4a6.042,6.042,0,0,1-1.754-3.038C6.771,18.111,7.227,16.408,8.14,13l.782-2.918c.131-.49.253-.945.369-1.367.687-2.517,1.149-3.9,2.035-4.847a6.042,6.042,0,0,1,3.038-1.754c1.474-.344,3.177.113,6.584,1.025s5.11,1.369,6.215,2.4a6.042,6.042,0,0,1,1.754,3.038,8.688,8.688,0,0,1-.35,3.993" transform="translate(2.553)" fill="none" stroke="#1c274c" stroke-linecap="round" stroke-width="2"/>
    <path id="Path_36" data-name="Path 36" d="M3.922,21.856c.913,3.407,1.369,5.11,2.4,6.215a6.042,6.042,0,0,0,3.038,1.754c1.474.344,3.177-.113,6.584-1.025s5.11-1.369,6.215-2.4a6.043,6.043,0,0,0,1.613-2.535M11.844,6.445c-.533.138-1.116.294-1.761.467-3.407.913-5.11,1.369-6.215,2.4a6.042,6.042,0,0,0-1.754,3.038,8.689,8.689,0,0,0,.35,3.993" transform="translate(0 2.27)" fill="none" stroke="#1c274c" stroke-linecap="round" stroke-linejoin="round" stroke-width="2"/>
  </g>
</svg>
