<svg xmlns="http://www.w3.org/2000/svg" width="27.248" height="33.489" viewBox="0 0 27.248 33.489">
  <g id="pdf-svgrepo-com" transform="translate(-47.706)">
    <path id="Path_29" data-name="Path 29" d="M69.337,0H57.348l-.609.609L48.315,9.033l-.609.609V27.871a5.625,5.625,0,0,0,5.618,5.618H69.337a5.624,5.624,0,0,0,5.617-5.618V5.618A5.624,5.624,0,0,0,69.337,0Zm3.538,27.871a3.538,3.538,0,0,1-3.538,3.538H53.324a3.538,3.538,0,0,1-3.538-3.538V10.5h5.476A2.949,2.949,0,0,0,58.21,7.556V2.08H69.337a3.538,3.538,0,0,1,3.538,3.538Z"/>
    <path id="Path_30" data-name="Path 30" d="M137.166,252.785H135.3a.534.534,0,0,0-.568.577v4.824a.654.654,0,1,0,1.305,0v-1.466a.048.048,0,0,1,.054-.053h1.075a1.948,1.948,0,1,0,0-3.882Zm-.08,2.754h-.995a.047.047,0,0,1-.054-.053v-1.519a.047.047,0,0,1,.054-.053h.995a.815.815,0,1,1,0,1.626Z" transform="translate(-81.334 -236.251)"/>
    <path id="Path_31" data-name="Path 31" d="M221.635,252.785h-1.43a.534.534,0,0,0-.568.577v4.9a.527.527,0,0,0,.568.569h1.43c1.288,0,2.088-.409,2.408-1.395a7.509,7.509,0,0,0,0-3.252C223.723,253.194,222.923,252.785,221.635,252.785Zm1.155,4.193c-.152.48-.586.684-1.191.684H221a.048.048,0,0,1-.054-.053V254a.048.048,0,0,1,.054-.053h.6c.6,0,1.039.2,1.191.684a6.543,6.543,0,0,1,0,2.346Z" transform="translate(-160.685 -236.251)"/>
    <path id="Path_32" data-name="Path 32" d="M311.155,252.785h-2.931a.535.535,0,0,0-.569.577v4.824a.654.654,0,1,0,1.306,0v-1.724a.047.047,0,0,1,.053-.053h1.706a.561.561,0,1,0,0-1.119h-1.706a.047.047,0,0,1-.053-.053v-1.271a.047.047,0,0,1,.053-.053h2.141a.565.565,0,1,0,0-1.128Z" transform="translate(-242.946 -236.251)"/>
  </g>
</svg>
