<svg xmlns="http://www.w3.org/2000/svg" width="26.832" height="30" viewBox="0 0 26.832 30">
  <path id="phone-svgrepo-com" d="M13.779,6.054S13.329,5,12.642,5a1.711,1.711,0,0,0-1.263.528c-.235.215-4.159,3.44-4.159,3.44A3.708,3.708,0,0,0,6.166,11.84,19.03,19.03,0,0,0,8.51,20.1c1.89,3.709,6.62,9.376,9.61,11.369a22.289,22.289,0,0,0,5.347,2.988,15.5,15.5,0,0,0,2.6.543,2.635,2.635,0,0,0,1.7-.525c.731-.53,4.831-3.828,4.831-3.828a1.249,1.249,0,0,0-.162-1.961c-1.171-1.054-4.728-3.4-5.489-4.015a1.881,1.881,0,0,0-2.317.074c-.468.427-1.3,1.129-1.406,1.218-.153.117-.571.5-1.04.308A14.35,14.35,0,0,1,16.861,21.6c-2.257-3.1-2.505-4.118-2.842-5.215a.764.764,0,0,1,.307-.9c.338-.235,1.583-1.272,1.583-1.272a1.8,1.8,0,0,0,.469-1.732c-.337-.937-2.6-6.431-2.6-6.431Z" transform="translate(-6.161 -5)"/>
</svg>
