<svg xmlns="http://www.w3.org/2000/svg" width="23.707" height="30" viewBox="0 0 23.707 30">
  <path id="pinterest-svgrepo-com" d="M178.806,20.793c-.8,4.131-1.837,7.11-4.731,9.18-.895-6.242,1.313-10.929,2.336-15.909-1.747-2.892.21-8.716,3.891-7.283,4.53,1.766-3.6,10.334,2.079,11.458,5.926,1.172,8.047-8.94,4.375-12.614-5.308-5.3-15.884-.806-14.237,6.715.664,3.032-1.594,3.895-1.594,3.895-1.828-.741-2-3.307-1.909-5.811.21-5.758,5.253-9.79,10.313-10.35,6.4-.706,12.4,2.313,13.232,8.243.935,6.69-2.765,14.375-9.609,13.853a12.881,12.881,0,0,1-4.145-1.376" transform="translate(-168.996 0.027)" fill-rule="evenodd"/>
</svg>
