<svg xmlns="http://www.w3.org/2000/svg" width="30.841" height="30.841" viewBox="0 0 30.841 30.841">
  <g id="qr-code-svgrepo-com" transform="translate(-1.25 -1.25)">
    <path id="Path_38" data-name="Path 38" d="M2,18.431c0-1.9,0-2.848.427-3.546a2.9,2.9,0,0,1,.958-.958c.7-.427,1.647-.427,3.546-.427h1.6c2.734,0,4.1,0,4.951.85s.85,2.217.85,4.951v1.6c0,1.9,0,2.848-.427,3.546a2.9,2.9,0,0,1-.958.958c-.7.427-1.647.427-3.546.427-2.848,0-4.272,0-5.319-.641a4.349,4.349,0,0,1-1.436-1.436" transform="translate(0 5.177)" fill="none" stroke="#1c274c" stroke-linecap="round" stroke-width="1.5"/>
    <path id="Path_39" data-name="Path 39" d="M25.827,9.4c0,1.9,0,2.848-.427,3.546a2.9,2.9,0,0,1-.958.958c-.7.427-1.647.427-3.546.427H19.3c-2.734,0-4.1,0-4.951-.85s-.85-2.217-.85-4.951v-1.6c0-1.9,0-2.848.427-3.546a2.9,2.9,0,0,1,.958-.958C15.582,2,16.532,2,18.431,2c2.848,0,4.272,0,5.319.641a4.349,4.349,0,0,1,1.436,1.436" transform="translate(5.177 0)" fill="none" stroke="#1c274c" stroke-linecap="round" stroke-width="1.5"/>
    <path id="Path_40" data-name="Path 40" d="M16.5,6.813c0-.747,0-1.121.187-1.385a1.016,1.016,0,0,1,.24-.24C17.192,5,17.565,5,18.313,5s1.121,0,1.385.187a1.016,1.016,0,0,1,.24.24c.187.264.187.638.187,1.385s0,1.121-.187,1.385a1.016,1.016,0,0,1-.24.24c-.264.187-.638.187-1.385.187s-1.121,0-1.385-.187a1.016,1.016,0,0,1-.24-.24C16.5,7.934,16.5,7.56,16.5,6.813Z" transform="translate(6.528 1.351)" fill="#1c274c"/>
    <path id="Path_41" data-name="Path 41" d="M12.75,26.164a1.088,1.088,0,1,0,2.175,0Zm2.377-11.838.6.9h0Zm-.8.8-.9-.6h0Zm7.487-2.377h-2.9v2.175h2.9ZM12.75,21.814v4.351h2.175V21.814Zm6.163-9.064c-1,0-1.824,0-2.493.067a4.032,4.032,0,0,0-1.9.605l1.208,1.809a1.929,1.929,0,0,1,.91-.25c.533-.054,1.232-.056,2.273-.056Zm-3.988,6.163c0-1.041,0-1.74.056-2.273a1.929,1.929,0,0,1,.25-.91l-1.809-1.208a4.032,4.032,0,0,0-.605,1.9c-.068.669-.067,1.5-.067,2.493Zm-.4-5.491a3.985,3.985,0,0,0-1.1,1.1l1.809,1.208a1.811,1.811,0,0,1,.5-.5Z" transform="translate(4.839 4.839)" fill="#1c274c"/>
    <path id="Path_42" data-name="Path 42" d="M25.339,13.838a1.088,1.088,0,1,0-2.175,0ZM22.461,25.943l.416,1h0Zm1.57-1.57-1-.416h0ZM17,27.252h2.9V25.077H17Zm8.339-8.339V13.838H23.163v5.076ZM19.9,27.252c.661,0,1.211,0,1.661-.03a4.092,4.092,0,0,0,1.315-.273l-.832-2.01a2,2,0,0,1-.631.113c-.359.025-.822.025-1.513.025Zm3.263-5.438c0,.691,0,1.154-.025,1.513a2,2,0,0,1-.113.631l2.01.832a4.092,4.092,0,0,0,.273-1.315c.031-.45.03-1,.03-1.661Zm-.287,5.135a3.988,3.988,0,0,0,2.158-2.158l-2.01-.832a1.813,1.813,0,0,1-.981.981Z" transform="translate(6.753 4.839)" fill="#1c274c"/>
    <path id="Path_43" data-name="Path 43" d="M2,9.4c0-2.848,0-4.272.641-5.319A4.351,4.351,0,0,1,4.077,2.641C5.124,2,6.548,2,9.4,2c1.9,0,2.848,0,3.546.427a2.9,2.9,0,0,1,.958.958c.427.7.427,1.647.427,3.546v1.6c0,2.734,0,4.1-.85,4.951s-2.217.85-4.951.85h-1.6c-1.9,0-2.848,0-3.546-.427a2.9,2.9,0,0,1-.958-.958C2,12.244,2,11.295,2,9.4Z" transform="translate(0 0)" fill="none" stroke="#1c274c" stroke-width="1.5"/>
    <path id="Path_44" data-name="Path 44" d="M5,6.813c0-.747,0-1.121.187-1.385a1.015,1.015,0,0,1,.24-.24C5.692,5,6.065,5,6.813,5S7.934,5,8.2,5.187a1.015,1.015,0,0,1,.24.24c.187.264.187.638.187,1.385s0,1.121-.187,1.385a1.014,1.014,0,0,1-.24.24c-.264.187-.638.187-1.385.187s-1.121,0-1.385-.187a1.015,1.015,0,0,1-.24-.24C5,7.934,5,7.56,5,6.813Z" transform="translate(1.351 1.351)" fill="#1c274c"/>
    <path id="Path_45" data-name="Path 45" d="M5,18.313c0-.747,0-1.121.187-1.385a1.016,1.016,0,0,1,.24-.24c.264-.187.638-.187,1.385-.187s1.121,0,1.385.187a1.016,1.016,0,0,1,.24.24c.187.264.187.638.187,1.385s0,1.121-.187,1.385a1.016,1.016,0,0,1-.24.24c-.264.187-.638.187-1.385.187s-1.121,0-1.385-.187a1.016,1.016,0,0,1-.24-.24C5,19.434,5,19.06,5,18.313Z" transform="translate(1.351 6.528)" fill="#1c274c"/>
    <path id="Path_46" data-name="Path 46" d="M16,18.538a3.578,3.578,0,0,1,.244-1.893,1.451,1.451,0,0,1,.4-.4A3.578,3.578,0,0,1,18.538,16a3.578,3.578,0,0,1,1.893.244,1.451,1.451,0,0,1,.4.4,3.578,3.578,0,0,1,.244,1.893,3.578,3.578,0,0,1-.244,1.893,1.451,1.451,0,0,1-.4.4,3.578,3.578,0,0,1-1.893.244,3.578,3.578,0,0,1-1.893-.244,1.451,1.451,0,0,1-.4-.4A3.578,3.578,0,0,1,16,18.538Z" transform="translate(6.303 6.303)" fill="#1c274c"/>
  </g>
</svg>
