<svg xmlns="http://www.w3.org/2000/svg" width="30" height="30" viewBox="0 0 30 30">
  <path id="slack-svgrepo-com" d="M29.567,16a4.774,4.774,0,0,0-5.386-7.723v-2.5A4.773,4.773,0,0,0,16,2.433,4.774,4.774,0,0,0,8.277,7.818h-2.5A4.773,4.773,0,0,0,2.433,16a4.774,4.774,0,0,0,5.386,7.723v2.5A4.773,4.773,0,0,0,16,29.567a4.774,4.774,0,0,0,7.723-5.386h2.5A4.773,4.773,0,0,0,29.567,16ZM12.591,3.727a2.045,2.045,0,0,1,2.045,2.045V7.818H12.591a2.045,2.045,0,1,1,0-4.091Zm4.773,2.045a2.045,2.045,0,0,1,4.091,0v8.864H17.364Zm-2.727,8.864V10.545H5.773a2.045,2.045,0,1,0,0,4.091Zm9.545,0h2.045a2.045,2.045,0,1,0-2.045-2.045Zm2.045,2.727H17.364v4.091h8.864a2.045,2.045,0,0,0,0-4.091Zm-6.818,6.818H17.364v2.045a2.045,2.045,0,1,0,2.045-2.045Zm-4.773-6.818H10.545v8.864a2.045,2.045,0,0,0,4.091,0Zm-8.864,0H7.818v2.045a2.045,2.045,0,1,1-2.045-2.045Z" transform="translate(-1 -1)" fill="#0f0f0f" fill-rule="evenodd"/>
</svg>
