<svg xmlns="http://www.w3.org/2000/svg" width="36.71" height="30" viewBox="0 0 36.71 30">
  <path id="twitter-svgrepo-com" d="M24.09,2.308a7.689,7.689,0,0,1,5.249,2.005,13.429,13.429,0,0,0,4.182-1.56,6.479,6.479,0,0,1-2.9,3.557A13.463,13.463,0,0,0,34.409,5.3a13.261,13.261,0,0,1-3.287,3.331c.012.275.018.552.018.828A18.127,18.127,0,0,1,12.623,27.692,19.752,19.752,0,0,1,2.288,24.867a13.074,13.074,0,0,0,1.57.092A13.426,13.426,0,0,0,12.046,22.2a6.57,6.57,0,0,1-6.157-4.464,6.84,6.84,0,0,0,1.24.115,6.667,6.667,0,0,0,1.734-.226,6.471,6.471,0,0,1-5.286-6.3v-.084a6.7,6.7,0,0,0,2.985.808A6.394,6.394,0,0,1,3.632,6.691a6.273,6.273,0,0,1,.891-3.232,18.886,18.886,0,0,0,13.585,6.72,6.239,6.239,0,0,1-.173-1.464A6.125,6.125,0,0,1,24.09,2.308M34.409,5.3h.006M24.09,0a8.323,8.323,0,0,0-8.38,7.56A16.6,16.6,0,0,1,6.278,1.974a2.287,2.287,0,0,0-1.755-.823q-.09,0-.18.007a2.293,2.293,0,0,0-1.785,1.11,8.635,8.635,0,0,0-.682,7.424,2.315,2.315,0,0,0-.591,1.546v.084a8.663,8.663,0,0,0,2.362,5.93,2.325,2.325,0,0,0,.063,1.207A8.7,8.7,0,0,0,6.346,22.38a11.405,11.405,0,0,1-2.488.271,10.567,10.567,0,0,1-1.293-.076,2.513,2.513,0,0,0-.278-.016,2.31,2.31,0,0,0-1.21,4.267A21.986,21.986,0,0,0,12.623,30a20.074,20.074,0,0,0,15.512-6.7,21.11,21.11,0,0,0,5.3-13.546,15.519,15.519,0,0,0,2.813-3.073A2.319,2.319,0,0,0,35.722,3.4,2.32,2.32,0,0,0,34.966.961,2.283,2.283,0,0,0,32.373.755,11,11,0,0,1,29.921,1.8,10.425,10.425,0,0,0,24.09,0Z" transform="translate(0.005)"/>
</svg>
