<svg xmlns="http://www.w3.org/2000/svg" width="31.002" height="29.573" viewBox="0 0 31.002 29.573">
  <g id="Page-1" transform="translate(0.5 0.501)">
    <g id="Dribbble-Light-Preview">
      <g id="icons">
        <path id="url-_1424_" data-name="url-[#1424]" d="M247.857,452.784a5.675,5.675,0,0,1,1-9.025,6.471,6.471,0,0,1,7.784.9l.959.913a1.585,1.585,0,0,0,2.165,0,1.408,1.408,0,0,0,0-2.062l-.81-.771a9.79,9.79,0,0,0-13.064-.448,8.459,8.459,0,0,0-.2,12.559l1.083,1.031a1.585,1.585,0,0,0,2.165,0,1.408,1.408,0,0,0,0-2.062Zm22.253.567-.781-.744a1.585,1.585,0,0,0-2.165,0,1.408,1.408,0,0,0,0,2.062l.959.913a5.73,5.73,0,0,1,.94,7.411,6.327,6.327,0,0,1-9.479.955l-1.083-1.031a1.585,1.585,0,0,0-2.165,0,1.408,1.408,0,0,0,0,2.062l1.083,1.031a9.513,9.513,0,0,0,13.162-.165,8.709,8.709,0,0,0-.47-12.493Zm-6.2,8.535-13.891-13.225a1.412,1.412,0,0,1,0-2.063,1.588,1.588,0,0,1,2.165,0l13.893,13.225a1.412,1.412,0,0,1,0,2.063,1.59,1.59,0,0,1-2.167,0Z" transform="translate(-243 -440)" stroke="#000" stroke-width="1" fill-rule="evenodd"/>
      </g>
    </g>
  </g>
</svg>
