<svg xmlns="http://www.w3.org/2000/svg" width="29.668" height="30.585" viewBox="0 0 29.668 30.585">
  <g id="viber-svgrepo-com" transform="translate(-0.666 -0.56)">
    <path id="Path_16" data-name="Path 16" d="M13.309,4a1.309,1.309,0,1,0,0,2.618,5.244,5.244,0,0,1,3.819,1.416,5.244,5.244,0,0,1,1.416,3.819,1.309,1.309,0,1,0,2.618,0,7.849,7.849,0,0,0-2.183-5.67A7.849,7.849,0,0,0,13.309,4Z" transform="translate(3.5 1.062)" fill="#0f0f0f"/>
    <path id="Path_17" data-name="Path 17" d="M5.018,8.626c.15-1.183,1.687-2.79,2.907-2.612l0,0c1.02.194,1.857,1.729,2.409,2.74.091.166.174.318.248.448a1.3,1.3,0,0,1-.218,1.627l-.127.1c-.466.37-1.071.851-.93,1.333.276.938,3.548,4.21,5.157,5.14.493.285.876-.268,1.2-.742.077-.112.152-.219.224-.31a1.275,1.275,0,0,1,1.615-.223A18.017,18.017,0,0,1,20.3,18.132a1.105,1.105,0,0,1,.234,1.459c-.527.994-2.053,2.3-3.16,2.038A18.184,18.184,0,0,1,5.105,9.348a1.3,1.3,0,0,1-.091-.691Z" transform="translate(1.338 1.68)" fill="#0f0f0f"/>
    <path id="Path_18" data-name="Path 18" d="M13.309,7a1.309,1.309,0,1,0,0,2.618,1.533,1.533,0,0,1,1.309,1.309,1.309,1.309,0,1,0,2.618,0A4.116,4.116,0,0,0,13.309,7Z" transform="translate(3.5 1.988)" fill="#0f0f0f"/>
    <path id="Path_19" data-name="Path 19" d="M9.633,31.017q.056.031.115.056c.71.305,1.587-.377,3.341-1.74l1.757-1.367A24.9,24.9,0,0,0,23.761,26.8a9.162,9.162,0,0,0,5.621-5.621,25.868,25.868,0,0,0,0-13.9A9.162,9.162,0,0,0,23.761,1.65C19.571.184,11.351.211,7.239,1.65A9.162,9.162,0,0,0,1.617,7.271a25.868,25.868,0,0,0,0,13.9A9.162,9.162,0,0,0,7.239,26.8a14.469,14.469,0,0,0,1.717.514C8.956,29.533,8.956,30.644,9.633,31.017Zm1.94-3.822V25.729a.652.652,0,0,0-.516-.638A24.149,24.149,0,0,1,8.1,24.326a6.544,6.544,0,0,1-4.015-4.015,19.986,19.986,0,0,1-.8-6.088,19.986,19.986,0,0,1,.8-6.088A6.544,6.544,0,0,1,8.1,4.12a24.707,24.707,0,0,1,7.37-.943A24.642,24.642,0,0,1,22.9,4.12a6.544,6.544,0,0,1,4.015,4.015,19.985,19.985,0,0,1,.8,6.088,19.985,19.985,0,0,1-.8,6.088A6.544,6.544,0,0,1,22.9,24.326a23.92,23.92,0,0,1-8.674,1,.658.658,0,0,0-.423.138Z" transform="translate(0 0)" fill="#0f0f0f" fill-rule="evenodd"/>
  </g>
</svg>
