<svg xmlns="http://www.w3.org/2000/svg" width="32.421" height="28" viewBox="0 0 32.421 28">
  <path id="youtube-svgrepo-com" d="M11.087,5.853a46.4,46.4,0,0,1,12.246,0c3.47.492,6.159,2.927,6.673,5.55a28.049,28.049,0,0,1,0,10.194c-.514,2.623-3.2,5.058-6.673,5.55a46.407,46.407,0,0,1-12.246,0c-3.47-.492-6.159-2.927-6.673-5.55a28.045,28.045,0,0,1,0-10.194C4.929,8.78,7.618,6.345,11.087,5.853Zm12.66-2.918a49.34,49.34,0,0,0-13.073,0c-4.443.629-8.347,3.8-9.152,7.9a30.983,30.983,0,0,0,0,11.328c.8,4.1,4.709,7.272,9.152,7.9a49.339,49.339,0,0,0,13.073,0c4.443-.629,8.347-3.8,9.152-7.9a30.989,30.989,0,0,0,0-11.328C32.095,6.734,28.19,3.564,23.747,2.935ZM15.081,9.379a1.474,1.474,0,0,0-2.291,1.226V22.395a1.474,1.474,0,0,0,2.291,1.226l8.842-5.895a1.474,1.474,0,0,0,0-2.453ZM20.448,16.5l-4.712,3.141V13.359Z" transform="translate(-1 -2.5)" fill-rule="evenodd"/>
</svg>
